<?xml version="1.0" encoding="utf-8"?>
<!-- Generator: Adobe Illustrator 16.0.0, SVG Export Plug-In . SVG Version: 6.00 Build 0)  -->
<!DOCTYPE svg PUBLIC "-//W3C//DTD SVG 1.1//EN" "http://www.w3.org/Graphics/SVG/1.1/DTD/svg11.dtd">
<svg version="1.1" id="Layer_1" xmlns="http://www.w3.org/2000/svg" xmlns:xlink="http://www.w3.org/1999/xlink" x="0px" y="0px"
	 width="217px" height="241px" viewBox="209.5 191.5 217 241"  xml:space="preserve">
	 <style type="text/css" >
 <![CDATA[
path{
	fill: #FFFFFF;
}
]]>
</style>
<g>
	<path d="M323.707,298.418c-7.191,4.006-14.328,7.555-21.025,11.799c-14.116,8.943-24.334,21.09-28.846,37.486
		c-4.99,18.135,2.587,37.699,18.072,46.928c11.592,6.908,30.25,5.09,42.818-4.41c15.646-11.823,22.713-28.562,26.885-47.653
		c-18.426-1.896-36.832-6.041-50.674,11.819c1.398-10.026,5.959-17.981,12.308-24.903c12.489-13.615,28.514-18.332,46.457-17.711
		c7.151,0.245,14.312,1.418,21.431,1.147c11.148-0.422,21.873-2.6,28.836-13.342c1.39,6.498-1.451,14.256-7.452,21.1
		c-9.022,10.289-19.855,17.711-33.495,20.343c-2.976,0.571-4.008,2.135-4.801,4.811c-4.546,15.357-10.541,30.061-19.035,43.762
		c-16.605,26.787-41.056,37.679-71.794,36.291c-12.56-0.565-24.847-2.129-35.885-8.969c-20.945-12.979-31.59-37.293-26.607-62.65
		c5.524-28.104,21.388-47.104,49.817-54.432c0.762-0.196,1.47-0.606,1.69-0.701c-5.696-4.977-12.206-9.325-17.007-15.098
		c-17.868-21.481-13.912-51.242,8.822-69.97c15.32-12.621,33.404-15.749,52.541-14.733c11.263,0.599,21.945,3.451,31.89,8.997
		c16.543,9.227,23.189,32.789,13.763,49.283c-6.585,11.52-23.549,12.586-32.853,2.732c3.213-5.16,6.515-9.994,9.328-15.097
		c3.428-6.217,2.879-12.894,1.055-19.45c-2.688-9.669-10.01-13.998-20.519-13.473c-23.543,1.179-41.399,24.492-31.663,51.129
		c5.267,14.41,15.733,23.994,28.812,31.17C318.897,295.896,321.25,297.113,323.707,298.418z"/>
</g>
</svg>
